Coordinates
version=1
nRows=17
nColumns=36
inDegrees=yes

Units are S.I. units (second, meters, Newtons, ...)
If the header above contains a line with 'inDegrees', this indicates whether rotational values are in degrees (yes) or radians (no).

endheader
time	pelvis_tilt	pelvis_list	pelvis_rotation	pelvis_tx	pelvis_ty	pelvis_tz	hip_flexion_r	hip_adduction_r	hip_rotation_r	knee_angle_r	knee_angle_r_beta	ankle_angle_r	subtalar_angle_r	mtp_angle_r	hip_flexion_l	hip_adduction_l	hip_rotation_l	knee_angle_l	knee_angle_l_beta	ankle_angle_l	subtalar_angle_l	mtp_angle_l	lumbar_extension	lumbar_bending	lumbar_rotation	arm_flex_r	arm_add_r	arm_rot_r	elbow_flex_r	pro_sup_r	arm_flex_l	arm_add_l	arm_rot_l	elbow_flex_l	pro_sup_l
      0.00000000	     -8.20839498	     -1.72832379	      2.37625871	     -0.87625864	      1.26971589	     -0.07344173	     21.62160692	     -0.86688653	     -4.60027279	     32.88752305	      0.57399556	     10.57037784	    -21.52746717	     -5.99240218	     20.86871809	     -6.13838804	      0.57566426	     31.07281804	      0.54232298	     10.00698863	    -10.42610335	     -5.99240218	    -37.89264934	      0.86950854	      1.45854656	      7.61637313	     -4.37239106	      9.99035082	     41.41877261	     85.55019643	      3.08717613	     -6.12369408	     10.18492477	     28.73468850	     69.64476606
      0.00416670	     -9.29973855	     -0.33818250	      3.27964336	     -0.87564855	      1.26757224	     -0.07258091	     23.88555258	     -1.91907910	     -4.16157602	     34.94993511	      0.60999144	     14.08875144	    -21.12845860	     -6.10800111	     23.50319192	     -3.44408369	      3.00476044	     34.36601643	      0.59980014	     14.91897481	     -5.88291015	     -6.10800111	    -37.62968542	     -0.20248846	     -0.05408471	      7.85003437	     -2.90169655	      8.38806585	     37.58473404	     84.77463762	      4.13559082	     -5.87694822	      6.54097210	     26.33110387	     69.98196275
      0.00833330	     -9.82815378	     -0.22500126	      3.29339144	     -0.87389542	      1.26356149	     -0.07397195	     24.70903136	     -2.17063732	     -4.71103245	     35.36308916	      0.61720234	     14.52329131	    -21.98112484	     -6.13652128	     24.05689486	     -3.16162758	      4.07995275	     34.54516274	      0.60292683	     16.05937391	     -5.31716853	     -6.13652128	    -37.05551965	     -0.36084514	     -0.15197489	      7.22662994	     -3.08612449	      8.60046139	     37.25565621	     84.68994539	      4.19656238	     -5.85314841	      6.23084452	     25.64669534	     70.46159531
      0.01250000	     -9.44489633	     -0.76913202	      3.56985153	     -0.87399677	      1.26520968	     -0.07489740	     24.34137029	     -1.90723682	     -5.38472965	     35.75573195	      0.62405525	     14.81643557	    -21.43202626	     -6.24420003	     23.80566375	     -3.32628161	      5.35751389	     34.61316316	      0.60411366	     16.76691155	     -5.67567890	     -6.24420003	    -37.72595544	      0.51695515	      0.01375077	      7.02164969	     -3.89031342	      8.76211920	     36.91225471	     83.67070990	      4.52718607	     -5.78906829	      6.09165982	     25.50865126	     70.47283132
      0.01666670	     -9.49976428	     -0.95684295	      3.66010202	     -0.87410646	      1.26348157	     -0.07592336	     24.67938018	     -1.93909676	     -5.95208201	     36.42676481	      0.63576698	     15.16079267	    -21.46036713	     -6.42640990	     24.23493242	     -3.35496154	      5.85366284	     35.19071209	      0.61419379	     17.30976783	     -6.09332882	     -6.42640990	    -37.82928076	      1.06425776	     -0.08314463	      7.15566425	     -4.55424170	      9.82929360	     36.50116813	     84.61033777	      4.96815174	     -5.74587172	      6.71469293	     24.81638666	     74.25028889
      0.02083330	     -9.37434199	     -1.17602233	      3.75067928	     -0.87586931	      1.26017348	     -0.07628712	     25.08129502	     -1.90249967	     -6.33324104	     37.38800545	      0.65254380	     15.00094758	    -22.41230896	     -6.49832716	     24.92419961	     -3.44701168	      6.31961178	     36.50236548	      0.63708646	     17.88118164	     -6.47970335	     -6.49832716	    -38.42103482	      1.56835971	      0.18532934	      7.38875929	     -4.84313680	      9.43737738	     36.76100507	     84.03774486	      5.28967926	     -5.39495363	      6.23004331	     25.32369086	     74.12648317
      0.02500000	     -9.43604304	     -1.39103851	      3.79648677	     -0.87547819	      1.25922225	     -0.07644082	     25.63321172	     -1.79439925	     -6.47071265	     38.16787400	      0.66615507	     14.99053893	    -23.08465108	     -6.54117750	     25.79079108	     -3.54633358	      6.73640711	     37.80028696	      0.65973947	     18.28571744	     -6.85864885	     -6.54117750	    -38.74117552	      2.00349638	      0.50721260	      7.49356103	     -5.11992638	      9.14416636	     37.09413180	     83.33068726	      5.52777890	     -5.06770421	      5.80609584	     25.93207588	     73.71986530
      0.02916670	     -9.39008316	     -1.61853700	      3.87755675	     -0.87477730	      1.25697023	     -0.07685684	     26.02427286	     -1.66472066	     -6.70088961	     38.96542438	      0.68007495	     15.09592783	    -23.47534291	     -6.59820995	     26.48633797	     -3.65404772	      7.16891397	     39.12054657	      0.68278234	     18.68139194	     -7.06402379	     -6.59820995	    -39.17785738	      2.37637203	      0.76506893	      7.55883332	     -5.40833461	      8.74301262	     37.15542199	     82.50443676	      5.71957609	     -4.74068802	      5.28372841	     26.62860056	     73.24379996
      0.03333330	     -9.25197677	     -1.67241106	      3.97925582	     -0.87298582	      1.25711556	     -0.07931343	     26.21650957	     -1.77435484	     -6.79749455	     39.66959572	      0.69236506	     15.23005841	    -23.51791118	     -6.84034567	     26.82079490	     -3.59897738	      7.35668087	     40.04403077	      0.69890018	     18.92524173	     -6.86094980	     -6.84034567	    -39.69964729	      2.70533446	      0.68551808	      7.73556997	     -5.31792130	      6.85616430	     36.71580028	     88.34220149	      5.60710265	     -4.00031738	      0.91524443	     27.60345045	     79.79510895
      0.03750000	     -9.04463273	     -1.79274199	      4.20907622	     -0.87117125	      1.25399607	     -0.07888562	     26.17915088	     -1.69995320	     -6.79998724	     40.14770482	      0.70070964	     15.46052627	    -23.42187486	     -6.89469288	     26.94261353	     -3.62580387	      7.64231243	     40.71786649	      0.71066083	     19.28841194	     -6.48039332	     -6.89469288	    -40.16645785	      3.05900809	      0.80743220	      7.67796052	     -5.61383544	      6.36442387	     36.48165301	     86.85780115	      5.82574329	     -3.78955226	      0.95322186	     28.21585313	     78.65691550
      0.04166670	     -8.82451280	     -1.78264834	      4.41082069	     -0.87231588	      1.25065174	     -0.07729705	     26.19466207	     -1.72396781	     -6.84833231	     40.74120762	      0.71106821	     16.54888263	    -22.67881594	     -6.96377057	     27.20258814	     -3.59813656	      7.77183168	     41.60713313	      0.72618147	     19.82271140	     -5.82463096	     -6.96377057	    -40.75580479	      3.27823579	      0.86788008	      8.07775557	     -5.62510200	      5.84964478	     36.07946583	     85.62405280	      6.12646422	     -3.69909872	      0.78241451	     28.65628165	     77.97603155
      0.04583330	     -8.61853668	     -1.81849010	      4.57380593	     -0.86850356	      1.24929324	     -0.07720445	     25.90935705	     -1.61261204	     -6.69910311	     40.92563998	      0.71428717	     17.62069653	    -22.16546975	     -6.97588556	     27.30891091	     -3.70775414	      7.82373147	     42.38948182	      0.73983603	     20.30879848	     -5.27160073	     -6.97588556	    -41.18316714	      3.52516861	      1.05555795	      8.26480352	     -5.62946812	      5.11915959	     35.16801984	     85.78585301	      6.44243766	     -3.50799477	      0.49574550	     28.94516384	     78.27357156
      0.05000000	     -8.40978487	     -1.85261110	      4.75232807	     -0.86989472	      1.24942187	     -0.07672601	     25.60256200	     -1.56525427	     -6.77580884	     41.03898545	      0.71626542	     18.04629091	    -22.38800854	     -7.00693350	     27.46128460	     -3.76738536	      7.88754745	     43.12257941	      0.75263099	     20.68382645	     -4.68658618	     -7.00693350	    -41.83419096	      3.70591635	      1.21077966	      8.54435319	     -5.67992820	      4.57887541	     34.88570544	     84.88744860	      6.80170086	     -3.33143410	      0.07201781	     29.49256149	     77.62684555
      0.05416670	     -8.06638218	     -1.82203312	      4.89903555	     -0.86762443	      1.24590100	     -0.07715040	     25.42444482	     -1.54804751	     -6.62382375	     41.75972937	      0.72884477	     18.72451296	    -22.30837575	     -7.01396966	     27.41855520	     -3.83807522	      7.90391027	     43.86990880	      0.76567435	     21.36893870	     -4.00223667	     -7.01396966	    -42.52491737	      3.84153245	      1.24968001	      8.80614795	     -5.77323711	      4.00197548	     34.56238706	     83.93203244	      7.12865527	     -3.18634679	     -0.43283388	     30.00647551	     77.05252745
      0.05833330	     -7.80045223	     -1.78082127	      4.96795190	     -0.86478901	      1.24443585	     -0.07740717	     25.23598972	     -1.59889441	     -6.71678422	     42.43287245	      0.74059334	     18.92941663	    -22.72885163	     -7.02679027	     27.38636332	     -3.91023931	      7.82178788	     44.69049238	      0.77999624	     21.87666678	     -3.61002466	     -7.02679027	    -43.04517275	      3.88214708	      1.26296473	      9.04853897	     -5.89214053	      3.59658389	     34.18431495	     83.73342585	      7.47998117	     -3.01356809	     -0.91034991	     30.26163109	     76.93488219
      0.06250000	     -7.61262513	     -1.78054968	      5.02342408	     -0.86426777	      1.24276727	     -0.07713991	     25.25141886	     -1.59983245	     -6.80532197	     43.17739963	      0.75358779	     19.31585944	    -22.76443203	     -7.06753449	     27.51275459	     -4.03375746	      7.77356978	     45.58200168	      0.79555601	     22.29018316	     -3.51325117	     -7.06753449	    -43.52271491	      3.97333299	      1.21082412	      9.24636718	     -6.01843568	      3.16402576	     34.10708086	     83.03547329	      7.73097511	     -2.88272146	     -1.49488941	     30.71119747	     76.46394927
      0.06666670	     -7.59423329	     -1.77805080	      5.12798735	     -0.86470235	      1.23895313	     -0.07483137	     25.68443077	     -1.66917446	     -6.94205551	     44.39096518	      0.77476850	     19.64986804	    -23.19255909	     -7.17814949	     27.92822125	     -4.18286076	      7.64565171	     46.59571487	      0.81324864	     22.62843247	     -3.36266138	     -7.17814949	    -43.88336795	      3.98796283	      0.91424694	      9.64181810	     -5.84135392	      1.51831860	     33.86685607	     88.92635490	      7.72124732	     -2.28106000	     -5.47256380	     31.59038843	     82.43169841
